<?xml version="1.0" encoding="UTF-8" standalone="no"?>
<!-- Created with Inkscape (http://www.inkscape.org/) -->

<svg
   xmlns:dc="http://purl.org/dc/elements/1.1/"
   xmlns:cc="http://creativecommons.org/ns#"
   xmlns:rdf="http://www.w3.org/1999/02/22-rdf-syntax-ns#"
   xmlns:svg="http://www.w3.org/2000/svg"
   xmlns="http://www.w3.org/2000/svg"
   xmlns:sodipodi="http://sodipodi.sourceforge.net/DTD/sodipodi-0.dtd"
   xmlns:inkscape="http://www.inkscape.org/namespaces/inkscape"
   width="482mm"
   height="754mm"
   id="svg2"
   version="1.1"
   inkscape:version="0.91 r13725"
   sodipodi:docname="panels_plain_754.svg">
  <defs
     id="defs4" />
  <sodipodi:namedview
     id="base"
     pagecolor="#ffffff"
     bordercolor="#666666"
     borderopacity="1.0"
     inkscape:pageopacity="0.0"
     inkscape:pageshadow="2"
     inkscape:zoom="0.2249349"
     inkscape:cx="477.05922"
     inkscape:cy="1272.7011"
     inkscape:document-units="mm"
     inkscape:current-layer="layer1"
     showgrid="false"
     inkscape:snap-bbox="true"
     inkscape:bbox-nodes="true"
     units="mm"
     fit-margin-top="0"
     fit-margin-left="0"
     fit-margin-right="0"
     fit-margin-bottom="0"
     inkscape:window-width="1536"
     inkscape:window-height="801"
     inkscape:window-x="-8"
     inkscape:window-y="-8"
     inkscape:window-maximized="1"
     inkscape:snap-global="false"
     showguides="true"
     inkscape:guide-bbox="true"
     inkscape:bbox-paths="false"
     inkscape:snap-bbox-midpoints="false"
     inkscape:snap-nodes="false"
     inkscape:snap-object-midpoints="true"
     inkscape:showpageshadow="false" />
  <metadata
     id="metadata7">
    <rdf:RDF>
      <cc:Work
         rdf:about="">
        <dc:format>image/svg+xml</dc:format>
        <dc:type
           rdf:resource="http://purl.org/dc/dcmitype/StillImage" />
        <dc:title />
      </cc:Work>
    </rdf:RDF>
  </metadata>
  <g
     inkscape:label="Layer 1"
     inkscape:groupmode="layer"
     id="layer1"
     transform="translate(203.34375,249.87221)">
    <path
       style="color:#000000;display:inline;overflow:visible;visibility:visible;fill:none;fill-opacity:0.08670523;stroke:#000000;stroke-width:3.54330707;stroke-miterlimit:4;stroke-dasharray:none;stroke-opacity:1;marker:none;enable-background:accumulate"
       d="m -203.34375,-249.87221 531.49603,0 0,2671.65361 -531.49603,0 z"
       id="rect2985-4" />
    <path
       style="color:#000000;display:inline;overflow:visible;visibility:visible;fill:none;fill-opacity:0.08670523;stroke:#000000;stroke-width:3.54330707;stroke-miterlimit:4;stroke-dasharray:none;stroke-opacity:1;marker:none;enable-background:accumulate"
       d="m 328.15228,-249.87221 1176.37792,0 0,2671.65361 -1176.37792,0 z"
       id="rect2985-4-9" />
    <path
       style="color:#000000;display:inline;overflow:visible;visibility:visible;fill:none;fill-opacity:1;stroke:#ff0000;stroke-width:3.54330707;stroke-miterlimit:4;stroke-dasharray:none;stroke-opacity:1;marker:none;enable-background:accumulate"
       d="m -127.16265,2381.0332 a 15.944881,15.944881 0 0 1 -15.94488,15.9449 15.944881,15.944881 0 0 1 -15.94488,-15.9449 15.944881,15.944881 0 0 1 15.94488,-15.9449 15.944881,15.944881 0 0 1 15.94488,15.9449 z"
       id="path3783-8-0" />
    <path
       style="color:#000000;display:inline;overflow:visible;visibility:visible;fill:none;fill-opacity:1;stroke:#ff0000;stroke-width:3.54330707;stroke-miterlimit:4;stroke-dasharray:none;stroke-opacity:1;marker:none;enable-background:accumulate"
       d="m -127.16265,-187.86433 a 15.944881,15.944881 0 0 1 -15.94488,15.94488 15.944881,15.944881 0 0 1 -15.94488,-15.94488 15.944881,15.944881 0 0 1 15.94488,-15.94489 15.944881,15.944881 0 0 1 15.94488,15.94489 z"
       id="path3783-8-0-4" />
    <path
       style="color:#000000;display:inline;overflow:visible;visibility:visible;fill:none;fill-opacity:1;stroke:#ff0000;stroke-width:3.54330707;stroke-miterlimit:4;stroke-dasharray:none;stroke-opacity:1;marker:none;enable-background:accumulate"
       d="m 404.3334,2381.0332 a 15.944881,15.944881 0 0 1 -15.94488,15.9449 15.944881,15.944881 0 0 1 -15.94488,-15.9449 15.944881,15.944881 0 0 1 15.94488,-15.9449 15.944881,15.944881 0 0 1 15.94488,15.9449 z"
       id="path3783-8-0-2" />
    <path
       style="color:#000000;display:inline;overflow:visible;visibility:visible;fill:none;fill-opacity:1;stroke:#ff0000;stroke-width:3.54330707;stroke-miterlimit:4;stroke-dasharray:none;stroke-opacity:1;marker:none;enable-background:accumulate"
       d="m 283.86099,-187.86433 a 15.944881,15.944881 0 0 1 -15.94488,15.94488 15.944881,15.944881 0 0 1 -15.94488,-15.94488 15.944881,15.944881 0 0 1 15.94488,-15.94489 15.944881,15.944881 0 0 1 15.94488,15.94489 z"
       id="path3783-8-0-5" />
    <path
       style="color:#000000;display:inline;overflow:visible;visibility:visible;fill:none;fill-opacity:1;stroke:#ff0000;stroke-width:3.54330707;stroke-miterlimit:4;stroke-dasharray:none;stroke-opacity:1;marker:none;enable-background:accumulate"
       d="m 1460.2389,2381.0332 a 15.944881,15.944881 0 0 1 -15.9448,15.9449 15.944881,15.944881 0 0 1 -15.9449,-15.9449 15.944881,15.944881 0 0 1 15.9449,-15.9449 15.944881,15.944881 0 0 1 15.9448,15.9449 z"
       id="path3783-8-0-9" />
    <path
       style="color:#000000;display:inline;overflow:visible;visibility:visible;fill:none;fill-opacity:1;stroke:#ff0000;stroke-width:3.54330707;stroke-miterlimit:4;stroke-dasharray:none;stroke-opacity:1;marker:none;enable-background:accumulate"
       d="m 1460.2389,-187.86433 a 15.944881,15.944881 0 0 1 -15.9448,15.94488 15.944881,15.944881 0 0 1 -15.9449,-15.94488 15.944881,15.944881 0 0 1 15.9449,-15.94489 15.944881,15.944881 0 0 1 15.9448,15.94489 z"
       id="path3783-8-0-6" />
    <path
       style="color:#000000;display:inline;overflow:visible;visibility:visible;fill:none;fill-opacity:1;stroke:#ff0000;stroke-width:3.54330707;stroke-miterlimit:4;stroke-dasharray:none;stroke-opacity:1;marker:none;enable-background:accumulate"
       d="m 404.3334,-187.86433 a 15.944881,15.944881 0 0 1 -15.94488,15.94488 15.944881,15.944881 0 0 1 -15.94488,-15.94488 15.944881,15.944881 0 0 1 15.94488,-15.94489 15.944881,15.944881 0 0 1 15.94488,15.94489 z"
       id="path3783-8-0-27" />
    <path
       style="color:#000000;display:inline;overflow:visible;visibility:visible;fill:none;fill-opacity:1;stroke:#ff0000;stroke-width:3.54330707;stroke-miterlimit:4;stroke-dasharray:none;stroke-opacity:1;marker:none;enable-background:accumulate"
       d="m 283.86099,2381.0332 a 15.944881,15.944881 0 0 1 -15.94488,15.9449 15.944881,15.944881 0 0 1 -15.94488,-15.9449 15.944881,15.944881 0 0 1 15.94488,-15.9449 15.944881,15.944881 0 0 1 15.94488,15.9449 z"
       id="path3783-8-0-98" />
  </g>
</svg>
