  0
SECTION
  2
HEADER
  9
$ACADVER
  1
AC1014
  9
$HANDSEED
  5
FFFF
  9
$MEASUREMENT
 70
     1
  0
ENDSEC
  0
SECTION
  2
TABLES
  0
TABLE
  2
VPORT
  5
8
330
0
100
AcDbSymbolTable
 70
     4
  0
VPORT
  5
2E
330
8
100
AcDbSymbolTableRecord
100
AcDbViewportTableRecord
  2
*ACTIVE
 70
     0
 10
0.0
 20
0.0
 11
1.0
 21
1.0
 12
210.0
 22
148.5
 13
0.0
 23
0.0
 14
10.0
 24
10.0
 15
10.0
 25
10.0
 16
0.0
 26
0.0
 36
1.0
 17
0.0
 27
0.0
 37
0.0
 40
341.0
 41
1.24
 42
50.0
 43
0.0
 44
0.0
 50
0.0
 51
0.0
 71
     0
 72
   100
 73
     1
 74
     3
 75
     0
 76
     0
 77
     0
 78
     0
  0
ENDTAB
  0
TABLE
  2
LTYPE
  5
5
330
0
100
AcDbSymbolTable
 70
     1
  0
LTYPE
  5
14
330
5
100
AcDbSymbolTableRecord
100
AcDbLinetypeTableRecord
  2
BYBLOCK
 70
     0
  3

 72
    65
 73
     0
 40
0.0
  0
LTYPE
  5
15
330
5
100
AcDbSymbolTableRecord
100
AcDbLinetypeTableRecord
  2
BYLAYER
 70
     0
  3

 72
    65
 73
     0
 40
0.0
  0
LTYPE
  5
16
330
5
100
AcDbSymbolTableRecord
100
AcDbLinetypeTableRecord
  2
CONTINUOUS
 70
     0
  3
Solid line
 72
    65
 73
     0
 40
0.0
  0
ENDTAB
  0
TABLE
  2
LAYER
  5
2
100
AcDbSymbolTable
 70
2
  0
LAYER
  5
50
100
AcDbSymbolTableRecord
100
AcDbLayerTableRecord
  2
0
 70
0
  6
CONTINUOUS
  0
LAYER
  5
51
100
AcDbSymbolTableRecord
100
AcDbLayerTableRecord
  2
Layer_1
 70
0
  6
CONTINUOUS
  0
ENDTAB
  0
TABLE
  2
STYLE
  5
3
330
0
100
AcDbSymbolTable
 70
     1
  0
STYLE
  5
11
330
3
100
AcDbSymbolTableRecord
100
AcDbTextStyleTableRecord
  2
STANDARD
 70
     0
 40
0.0
 41
1.0
 50
0.0
 71
     0
 42
2.5
  3
txt
  4

  0
ENDTAB
  0
TABLE
  2
VIEW
  5
6
330
0
100
AcDbSymbolTable
 70
     0
  0
ENDTAB
  0
TABLE
  2
UCS
  5
7
330
0
100
AcDbSymbolTable
 70
     0
  0
ENDTAB
  0
TABLE
  2
APPID
  5
9
330
0
100
AcDbSymbolTable
 70
     2
  0
APPID
  5
12
330
9
100
AcDbSymbolTableRecord
100
AcDbRegAppTableRecord
  2
ACAD
 70
     0
  0
ENDTAB
  0
TABLE
  2
DIMSTYLE
  5
A
330
0
100
AcDbSymbolTable
 70
     1
  0
DIMSTYLE
105
27
330
A
100
AcDbSymbolTableRecord
100
AcDbDimStyleTableRecord
  2
ISO-25
 70
     0
  3

  4

  5

  6

  7

 40
1.0
 41
2.5
 42
0.625
 43
3.75
 44
1.25
 45
0.0
 46
0.0
 47
0.0
 48
0.0
140
2.5
141
2.5
142
0.0
143
0.03937007874016
144
1.0
145
0.0
146
1.0
147
0.625
 71
     0
 72
     0
 73
     0
 74
     0
 75
     0
 76
     0
 77
     1
 78
     8
170
     0
171
     3
172
     1
173
     0
174
     0
175
     0
176
     0
177
     0
178
     0
270
     2
271
     2
272
     2
273
     2
274
     3
340
11
275
     0
280
     0
281
     0
282
     0
283
     0
284
     8
285
     0
286
     0
287
     3
288
     0
  0
ENDTAB
  0
TABLE
  2
BLOCK_RECORD
  5
1
330
0
100
AcDbSymbolTable
 70
     1
  0
BLOCK_RECORD
  5
1F
330
1
100
AcDbSymbolTableRecord
100
AcDbBlockTableRecord
  2
*MODEL_SPACE
  0
BLOCK_RECORD
  5
1B
330
1
100
AcDbSymbolTableRecord
100
AcDbBlockTableRecord
  2
*PAPER_SPACE
  0
ENDTAB
  0
ENDSEC
  0
SECTION
  2
BLOCKS
  0
BLOCK
  5
20
330
1F
100
AcDbEntity
  8
0
100
AcDbBlockBegin
  2
*MODEL_SPACE
 70
     0
 10
0.0
 20
0.0
 30
0.0
  3
*MODEL_SPACE
  1

  0
ENDBLK
  5
21
330
1F
100
AcDbEntity
  8
0
100
AcDbBlockEnd
  0
BLOCK
  5
1C
330
1B
100
AcDbEntity
 67
     1
  8
0
100
AcDbBlockBegin
  2
*PAPER_SPACE
  1

  0
ENDBLK
  5
1D
330
1B
100
AcDbEntity
 67
     1
  8
0
100
AcDbBlockEnd
  0
ENDSEC
  0
SECTION
  2
ENTITIES
  0
LWPOLYLINE
  5
100
100
AcDbEntity
  8
Layer_1
 62
7
100
AcDbPolyline
 90
5
 70
1
 10
0.000000
 20
754.000000
 30
0.0
 10
149.999991
 20
754.000000
 30
0.0
 10
149.999991
 20
-0.000019
 30
0.0
 10
0.000000
 20
-0.000019
 30
0.0
 10
0.000000
 20
754.000000
 30
0.0
  0
SPLINE
  5
101
100
AcDbEntity
  8
Layer_1
 62
1
100
AcDbSpline
 70
8
 71
3
 72
8
 73
4
 74
0
 40
0
 40
0
 40
0
 40
0
 40
1
 40
1
 40
1
 40
1
 10
21.499999
 20
11.500029
 30
0.0
 10
21.500001
 20
10.306554
 30
0.0
 10
21.025896
 20
9.161960
 30
0.0
 10
20.181982
 20
8.318045
 30
0.0
  0
SPLINE
  5
102
100
AcDbEntity
  8
Layer_1
 62
1
100
AcDbSpline
 70
8
 71
3
 72
8
 73
4
 74
0
 40
0
 40
0
 40
0
 40
0
 40
1
 40
1
 40
1
 40
1
 10
20.181982
 20
8.318045
 30
0.0
 10
19.338068
 20
7.474130
 30
0.0
 10
18.193475
 20
7.000024
 30
0.0
 10
17.000000
 20
7.000024
 30
0.0
  0
SPLINE
  5
103
100
AcDbEntity
  8
Layer_1
 62
1
100
AcDbSpline
 70
8
 71
3
 72
8
 73
4
 74
0
 40
0
 40
0
 40
0
 40
0
 40
1
 40
1
 40
1
 40
1
 10
17.000000
 20
7.000024
 30
0.0
 10
15.806525
 20
7.000024
 30
0.0
 10
14.661932
 20
7.474130
 30
0.0
 10
13.818018
 20
8.318045
 30
0.0
  0
SPLINE
  5
104
100
AcDbEntity
  8
Layer_1
 62
1
100
AcDbSpline
 70
8
 71
3
 72
8
 73
4
 74
0
 40
0
 40
0
 40
0
 40
0
 40
1
 40
1
 40
1
 40
1
 10
13.818018
 20
8.318045
 30
0.0
 10
12.974104
 20
9.161960
 30
0.0
 10
12.499999
 20
10.306554
 30
0.0
 10
12.500000
 20
11.500029
 30
0.0
  0
SPLINE
  5
105
100
AcDbEntity
  8
Layer_1
 62
1
100
AcDbSpline
 70
8
 71
3
 72
8
 73
4
 74
0
 40
0
 40
0
 40
0
 40
0
 40
1
 40
1
 40
1
 40
1
 10
12.500000
 20
11.500029
 30
0.0
 10
12.499999
 20
12.693504
 30
0.0
 10
12.974104
 20
13.838098
 30
0.0
 10
13.818018
 20
14.682012
 30
0.0
  0
SPLINE
  5
106
100
AcDbEntity
  8
Layer_1
 62
1
100
AcDbSpline
 70
8
 71
3
 72
8
 73
4
 74
0
 40
0
 40
0
 40
0
 40
0
 40
1
 40
1
 40
1
 40
1
 10
13.818018
 20
14.682012
 30
0.0
 10
14.661932
 20
15.525927
 30
0.0
 10
15.806525
 20
16.000034
 30
0.0
 10
17.000000
 20
16.000034
 30
0.0
  0
SPLINE
  5
107
100
AcDbEntity
  8
Layer_1
 62
1
100
AcDbSpline
 70
8
 71
3
 72
8
 73
4
 74
0
 40
0
 40
0
 40
0
 40
0
 40
1
 40
1
 40
1
 40
1
 10
17.000000
 20
16.000034
 30
0.0
 10
18.193475
 20
16.000034
 30
0.0
 10
19.338068
 20
15.525927
 30
0.0
 10
20.181982
 20
14.682012
 30
0.0
  0
SPLINE
  5
108
100
AcDbEntity
  8
Layer_1
 62
1
100
AcDbSpline
 70
8
 71
3
 72
8
 73
4
 74
0
 40
0
 40
0
 40
0
 40
0
 40
1
 40
1
 40
1
 40
1
 10
20.181982
 20
14.682012
 30
0.0
 10
21.025896
 20
13.838098
 30
0.0
 10
21.500001
 20
12.693504
 30
0.0
 10
21.499999
 20
11.500029
 30
0.0
  0
LWPOLYLINE
  5
109
100
AcDbEntity
  8
Layer_1
 62
7
100
AcDbPolyline
 90
5
 70
1
 10
149.999991
 20
754.000000
 30
0.0
 10
481.999981
 20
754.000000
 30
0.0
 10
481.999981
 20
-0.000019
 30
0.0
 10
149.999991
 20
-0.000019
 30
0.0
 10
149.999991
 20
754.000000
 30
0.0
  0
SPLINE
  5
10a
100
AcDbEntity
  8
Layer_1
 62
1
100
AcDbSpline
 70
8
 71
3
 72
8
 73
4
 74
0
 40
0
 40
0
 40
0
 40
0
 40
1
 40
1
 40
1
 40
1
 10
21.499999
 20
736.499998
 30
0.0
 10
21.499999
 20
734.014717
 30
0.0
 10
19.485281
 20
731.999999
 30
0.0
 10
17.000000
 20
731.999999
 30
0.0
  0
SPLINE
  5
10b
100
AcDbEntity
  8
Layer_1
 62
1
100
AcDbSpline
 70
8
 71
3
 72
8
 73
4
 74
0
 40
0
 40
0
 40
0
 40
0
 40
1
 40
1
 40
1
 40
1
 10
17.000000
 20
731.999999
 30
0.0
 10
14.514719
 20
731.999999
 30
0.0
 10
12.500001
 20
734.014717
 30
0.0
 10
12.500000
 20
736.499998
 30
0.0
  0
SPLINE
  5
10c
100
AcDbEntity
  8
Layer_1
 62
1
100
AcDbSpline
 70
8
 71
3
 72
8
 73
4
 74
0
 40
0
 40
0
 40
0
 40
0
 40
1
 40
1
 40
1
 40
1
 10
12.500000
 20
736.499998
 30
0.0
 10
12.500000
 20
737.693473
 30
0.0
 10
12.974105
 20
738.838066
 30
0.0
 10
13.818019
 20
739.681980
 30
0.0
  0
SPLINE
  5
10d
100
AcDbEntity
  8
Layer_1
 62
1
100
AcDbSpline
 70
8
 71
3
 72
8
 73
4
 74
0
 40
0
 40
0
 40
0
 40
0
 40
1
 40
1
 40
1
 40
1
 10
13.818019
 20
739.681980
 30
0.0
 10
14.661932
 20
740.525894
 30
0.0
 10
15.806525
 20
741.000001
 30
0.0
 10
17.000000
 20
741.000001
 30
0.0
  0
SPLINE
  5
10e
100
AcDbEntity
  8
Layer_1
 62
1
100
AcDbSpline
 70
8
 71
3
 72
8
 73
4
 74
0
 40
0
 40
0
 40
0
 40
0
 40
1
 40
1
 40
1
 40
1
 10
17.000000
 20
741.000001
 30
0.0
 10
18.193474
 20
741.000001
 30
0.0
 10
19.338067
 20
740.525894
 30
0.0
 10
20.181981
 20
739.681980
 30
0.0
  0
SPLINE
  5
10f
100
AcDbEntity
  8
Layer_1
 62
1
100
AcDbSpline
 70
8
 71
3
 72
8
 73
4
 74
0
 40
0
 40
0
 40
0
 40
0
 40
1
 40
1
 40
1
 40
1
 10
20.181981
 20
739.681980
 30
0.0
 10
21.025895
 20
738.838066
 30
0.0
 10
21.500000
 20
737.693473
 30
0.0
 10
21.499999
 20
736.499998
 30
0.0
  0
LWPOLYLINE
  5
110
100
AcDbEntity
  8
Layer_1
 62
1
100
AcDbPolyline
 90
2
 70
1
 10
21.499999
 20
11.500029
 30
0.0
 10
21.499999
 20
11.500029
 30
0.0
  0
SPLINE
  5
111
100
AcDbEntity
  8
Layer_1
 62
1
100
AcDbSpline
 70
8
 71
3
 72
8
 73
4
 74
0
 40
0
 40
0
 40
0
 40
0
 40
1
 40
1
 40
1
 40
1
 10
171.499996
 20
11.500029
 30
0.0
 10
171.499997
 20
10.306554
 30
0.0
 10
171.025892
 20
9.161960
 30
0.0
 10
170.181978
 20
8.318045
 30
0.0
  0
SPLINE
  5
112
100
AcDbEntity
  8
Layer_1
 62
1
100
AcDbSpline
 70
8
 71
3
 72
8
 73
4
 74
0
 40
0
 40
0
 40
0
 40
0
 40
1
 40
1
 40
1
 40
1
 10
170.181978
 20
8.318045
 30
0.0
 10
169.338065
 20
7.474130
 30
0.0
 10
168.193471
 20
7.000024
 30
0.0
 10
166.999996
 20
7.000024
 30
0.0
  0
SPLINE
  5
113
100
AcDbEntity
  8
Layer_1
 62
1
100
AcDbSpline
 70
8
 71
3
 72
8
 73
4
 74
0
 40
0
 40
0
 40
0
 40
0
 40
1
 40
1
 40
1
 40
1
 10
166.999996
 20
7.000024
 30
0.0
 10
165.806521
 20
7.000024
 30
0.0
 10
164.661928
 20
7.474130
 30
0.0
 10
163.818014
 20
8.318045
 30
0.0
  0
SPLINE
  5
114
100
AcDbEntity
  8
Layer_1
 62
1
100
AcDbSpline
 70
8
 71
3
 72
8
 73
4
 74
0
 40
0
 40
0
 40
0
 40
0
 40
1
 40
1
 40
1
 40
1
 10
163.818014
 20
8.318045
 30
0.0
 10
162.974100
 20
9.161960
 30
0.0
 10
162.499995
 20
10.306554
 30
0.0
 10
162.499997
 20
11.500029
 30
0.0
  0
SPLINE
  5
115
100
AcDbEntity
  8
Layer_1
 62
1
100
AcDbSpline
 70
8
 71
3
 72
8
 73
4
 74
0
 40
0
 40
0
 40
0
 40
0
 40
1
 40
1
 40
1
 40
1
 10
162.499997
 20
11.500029
 30
0.0
 10
162.499995
 20
12.693504
 30
0.0
 10
162.974100
 20
13.838098
 30
0.0
 10
163.818014
 20
14.682012
 30
0.0
  0
SPLINE
  5
116
100
AcDbEntity
  8
Layer_1
 62
1
100
AcDbSpline
 70
8
 71
3
 72
8
 73
4
 74
0
 40
0
 40
0
 40
0
 40
0
 40
1
 40
1
 40
1
 40
1
 10
163.818014
 20
14.682012
 30
0.0
 10
164.661928
 20
15.525927
 30
0.0
 10
165.806521
 20
16.000034
 30
0.0
 10
166.999996
 20
16.000034
 30
0.0
  0
SPLINE
  5
117
100
AcDbEntity
  8
Layer_1
 62
1
100
AcDbSpline
 70
8
 71
3
 72
8
 73
4
 74
0
 40
0
 40
0
 40
0
 40
0
 40
1
 40
1
 40
1
 40
1
 10
166.999996
 20
16.000034
 30
0.0
 10
168.193471
 20
16.000034
 30
0.0
 10
169.338065
 20
15.525927
 30
0.0
 10
170.181978
 20
14.682012
 30
0.0
  0
SPLINE
  5
118
100
AcDbEntity
  8
Layer_1
 62
1
100
AcDbSpline
 70
8
 71
3
 72
8
 73
4
 74
0
 40
0
 40
0
 40
0
 40
0
 40
1
 40
1
 40
1
 40
1
 10
170.181978
 20
14.682012
 30
0.0
 10
171.025892
 20
13.838098
 30
0.0
 10
171.499997
 20
12.693504
 30
0.0
 10
171.499996
 20
11.500029
 30
0.0
  0
LWPOLYLINE
  5
119
100
AcDbEntity
  8
Layer_1
 62
1
100
AcDbPolyline
 90
2
 70
1
 10
21.499999
 20
736.499998
 30
0.0
 10
21.499999
 20
736.499998
 30
0.0
  0
SPLINE
  5
11a
100
AcDbEntity
  8
Layer_1
 62
1
100
AcDbSpline
 70
8
 71
3
 72
8
 73
4
 74
0
 40
0
 40
0
 40
0
 40
0
 40
1
 40
1
 40
1
 40
1
 10
137.500004
 20
736.499998
 30
0.0
 10
137.500004
 20
734.014717
 30
0.0
 10
135.485286
 20
731.999999
 30
0.0
 10
133.000005
 20
731.999999
 30
0.0
  0
SPLINE
  5
11b
100
AcDbEntity
  8
Layer_1
 62
1
100
AcDbSpline
 70
8
 71
3
 72
8
 73
4
 74
0
 40
0
 40
0
 40
0
 40
0
 40
1
 40
1
 40
1
 40
1
 10
133.000005
 20
731.999999
 30
0.0
 10
130.514724
 20
731.999999
 30
0.0
 10
128.500006
 20
734.014717
 30
0.0
 10
128.500005
 20
736.499998
 30
0.0
  0
SPLINE
  5
11c
100
AcDbEntity
  8
Layer_1
 62
1
100
AcDbSpline
 70
8
 71
3
 72
8
 73
4
 74
0
 40
0
 40
0
 40
0
 40
0
 40
1
 40
1
 40
1
 40
1
 10
128.500005
 20
736.499998
 30
0.0
 10
128.500005
 20
737.693473
 30
0.0
 10
128.974110
 20
738.838066
 30
0.0
 10
129.818024
 20
739.681980
 30
0.0
  0
SPLINE
  5
11d
100
AcDbEntity
  8
Layer_1
 62
1
100
AcDbSpline
 70
8
 71
3
 72
8
 73
4
 74
0
 40
0
 40
0
 40
0
 40
0
 40
1
 40
1
 40
1
 40
1
 10
129.818024
 20
739.681980
 30
0.0
 10
130.661938
 20
740.525894
 30
0.0
 10
131.806530
 20
741.000001
 30
0.0
 10
133.000005
 20
741.000001
 30
0.0
  0
SPLINE
  5
11e
100
AcDbEntity
  8
Layer_1
 62
1
100
AcDbSpline
 70
8
 71
3
 72
8
 73
4
 74
0
 40
0
 40
0
 40
0
 40
0
 40
1
 40
1
 40
1
 40
1
 10
133.000005
 20
741.000001
 30
0.0
 10
134.193479
 20
741.000001
 30
0.0
 10
135.338072
 20
740.525894
 30
0.0
 10
136.181986
 20
739.681980
 30
0.0
  0
SPLINE
  5
11f
100
AcDbEntity
  8
Layer_1
 62
1
100
AcDbSpline
 70
8
 71
3
 72
8
 73
4
 74
0
 40
0
 40
0
 40
0
 40
0
 40
1
 40
1
 40
1
 40
1
 10
136.181986
 20
739.681980
 30
0.0
 10
137.025900
 20
738.838066
 30
0.0
 10
137.500005
 20
737.693473
 30
0.0
 10
137.500004
 20
736.499998
 30
0.0
  0
LWPOLYLINE
  5
120
100
AcDbEntity
  8
Layer_1
 62
1
100
AcDbPolyline
 90
2
 70
1
 10
171.499996
 20
11.500029
 30
0.0
 10
171.499996
 20
11.500029
 30
0.0
  0
SPLINE
  5
121
100
AcDbEntity
  8
Layer_1
 62
1
100
AcDbSpline
 70
8
 71
3
 72
8
 73
4
 74
0
 40
0
 40
0
 40
0
 40
0
 40
1
 40
1
 40
1
 40
1
 10
469.499992
 20
11.500029
 30
0.0
 10
469.499995
 20
9.014754
 30
0.0
 10
467.485290
 20
7.000036
 30
0.0
 10
465.000015
 20
7.000024
 30
0.0
  0
SPLINE
  5
122
100
AcDbEntity
  8
Layer_1
 62
1
100
AcDbSpline
 70
8
 71
3
 72
8
 73
4
 74
0
 40
0
 40
0
 40
0
 40
0
 40
1
 40
1
 40
1
 40
1
 10
465.000015
 20
7.000024
 30
0.0
 10
463.806539
 20
7.000022
 30
0.0
 10
462.661945
 20
7.474128
 30
0.0
 10
461.818030
 20
8.318043
 30
0.0
  0
SPLINE
  5
123
100
AcDbEntity
  8
Layer_1
 62
1
100
AcDbSpline
 70
8
 71
3
 72
8
 73
4
 74
0
 40
0
 40
0
 40
0
 40
0
 40
1
 40
1
 40
1
 40
1
 10
461.818030
 20
8.318043
 30
0.0
 10
460.974115
 20
9.161958
 30
0.0
 10
460.500009
 20
10.306553
 30
0.0
 10
460.500010
 20
11.500029
 30
0.0
  0
SPLINE
  5
124
100
AcDbEntity
  8
Layer_1
 62
1
100
AcDbSpline
 70
8
 71
3
 72
8
 73
4
 74
0
 40
0
 40
0
 40
0
 40
0
 40
1
 40
1
 40
1
 40
1
 10
460.500010
 20
11.500029
 30
0.0
 10
460.500009
 20
12.693505
 30
0.0
 10
460.974115
 20
13.838099
 30
0.0
 10
461.818030
 20
14.682014
 30
0.0
  0
SPLINE
  5
125
100
AcDbEntity
  8
Layer_1
 62
1
100
AcDbSpline
 70
8
 71
3
 72
8
 73
4
 74
0
 40
0
 40
0
 40
0
 40
0
 40
1
 40
1
 40
1
 40
1
 10
461.818030
 20
14.682014
 30
0.0
 10
462.661945
 20
15.525929
 30
0.0
 10
463.806539
 20
16.000035
 30
0.0
 10
465.000015
 20
16.000034
 30
0.0
  0
SPLINE
  5
126
100
AcDbEntity
  8
Layer_1
 62
1
100
AcDbSpline
 70
8
 71
3
 72
8
 73
4
 74
0
 40
0
 40
0
 40
0
 40
0
 40
1
 40
1
 40
1
 40
1
 10
465.000015
 20
16.000034
 30
0.0
 10
467.485290
 20
16.000021
 30
0.0
 10
469.499995
 20
13.985303
 30
0.0
 10
469.499992
 20
11.500029
 30
0.0
  0
LWPOLYLINE
  5
127
100
AcDbEntity
  8
Layer_1
 62
1
100
AcDbPolyline
 90
2
 70
1
 10
137.500004
 20
736.499998
 30
0.0
 10
137.500004
 20
736.499998
 30
0.0
  0
SPLINE
  5
128
100
AcDbEntity
  8
Layer_1
 62
1
100
AcDbSpline
 70
8
 71
3
 72
8
 73
4
 74
0
 40
0
 40
0
 40
0
 40
0
 40
1
 40
1
 40
1
 40
1
 10
469.499992
 20
736.499998
 30
0.0
 10
469.499992
 20
734.014726
 30
0.0
 10
467.485288
 20
732.000011
 30
0.0
 10
465.000015
 20
731.999999
 30
0.0
  0
SPLINE
  5
129
100
AcDbEntity
  8
Layer_1
 62
1
100
AcDbSpline
 70
8
 71
3
 72
8
 73
4
 74
0
 40
0
 40
0
 40
0
 40
0
 40
1
 40
1
 40
1
 40
1
 10
465.000015
 20
731.999999
 30
0.0
 10
463.806540
 20
731.999997
 30
0.0
 10
462.661947
 20
732.474103
 30
0.0
 10
461.818032
 20
733.318016
 30
0.0
  0
SPLINE
  5
12a
100
AcDbEntity
  8
Layer_1
 62
1
100
AcDbSpline
 70
8
 71
3
 72
8
 73
4
 74
0
 40
0
 40
0
 40
0
 40
0
 40
1
 40
1
 40
1
 40
1
 10
461.818032
 20
733.318016
 30
0.0
 10
460.974117
 20
734.161930
 30
0.0
 10
460.500010
 20
735.306523
 30
0.0
 10
460.500010
 20
736.499998
 30
0.0
  0
SPLINE
  5
12b
100
AcDbEntity
  8
Layer_1
 62
1
100
AcDbSpline
 70
8
 71
3
 72
8
 73
4
 74
0
 40
0
 40
0
 40
0
 40
0
 40
1
 40
1
 40
1
 40
1
 10
460.500010
 20
736.499998
 30
0.0
 10
460.500010
 20
737.693474
 30
0.0
 10
460.974116
 20
738.838068
 30
0.0
 10
461.818031
 20
739.681982
 30
0.0
  0
SPLINE
  5
12c
100
AcDbEntity
  8
Layer_1
 62
1
100
AcDbSpline
 70
8
 71
3
 72
8
 73
4
 74
0
 40
0
 40
0
 40
0
 40
0
 40
1
 40
1
 40
1
 40
1
 10
461.818031
 20
739.681982
 30
0.0
 10
462.661946
 20
740.525897
 30
0.0
 10
463.806540
 20
741.000002
 30
0.0
 10
465.000015
 20
741.000001
 30
0.0
  0
SPLINE
  5
12d
100
AcDbEntity
  8
Layer_1
 62
1
100
AcDbSpline
 70
8
 71
3
 72
8
 73
4
 74
0
 40
0
 40
0
 40
0
 40
0
 40
1
 40
1
 40
1
 40
1
 10
465.000015
 20
741.000001
 30
0.0
 10
467.485289
 20
740.999988
 30
0.0
 10
469.499994
 20
738.985272
 30
0.0
 10
469.499992
 20
736.499998
 30
0.0
  0
LWPOLYLINE
  5
12e
100
AcDbEntity
  8
Layer_1
 62
1
100
AcDbPolyline
 90
2
 70
1
 10
469.499992
 20
11.500029
 30
0.0
 10
469.499992
 20
11.500029
 30
0.0
  0
SPLINE
  5
12f
100
AcDbEntity
  8
Layer_1
 62
1
100
AcDbSpline
 70
8
 71
3
 72
8
 73
4
 74
0
 40
0
 40
0
 40
0
 40
0
 40
1
 40
1
 40
1
 40
1
 10
171.499996
 20
736.499998
 30
0.0
 10
171.499996
 20
734.014717
 30
0.0
 10
169.485277
 20
731.999999
 30
0.0
 10
166.999996
 20
731.999999
 30
0.0
  0
SPLINE
  5
130
100
AcDbEntity
  8
Layer_1
 62
1
100
AcDbSpline
 70
8
 71
3
 72
8
 73
4
 74
0
 40
0
 40
0
 40
0
 40
0
 40
1
 40
1
 40
1
 40
1
 10
166.999996
 20
731.999999
 30
0.0
 10
164.514715
 20
731.999999
 30
0.0
 10
162.499997
 20
734.014717
 30
0.0
 10
162.499997
 20
736.499998
 30
0.0
  0
SPLINE
  5
131
100
AcDbEntity
  8
Layer_1
 62
1
100
AcDbSpline
 70
8
 71
3
 72
8
 73
4
 74
0
 40
0
 40
0
 40
0
 40
0
 40
1
 40
1
 40
1
 40
1
 10
162.499997
 20
736.499998
 30
0.0
 10
162.499996
 20
737.693473
 30
0.0
 10
162.974101
 20
738.838066
 30
0.0
 10
163.818015
 20
739.681980
 30
0.0
  0
SPLINE
  5
132
100
AcDbEntity
  8
Layer_1
 62
1
100
AcDbSpline
 70
8
 71
3
 72
8
 73
4
 74
0
 40
0
 40
0
 40
0
 40
0
 40
1
 40
1
 40
1
 40
1
 10
163.818015
 20
739.681980
 30
0.0
 10
164.661929
 20
740.525894
 30
0.0
 10
165.806522
 20
741.000001
 30
0.0
 10
166.999996
 20
741.000001
 30
0.0
  0
SPLINE
  5
133
100
AcDbEntity
  8
Layer_1
 62
1
100
AcDbSpline
 70
8
 71
3
 72
8
 73
4
 74
0
 40
0
 40
0
 40
0
 40
0
 40
1
 40
1
 40
1
 40
1
 10
166.999996
 20
741.000001
 30
0.0
 10
168.193471
 20
741.000001
 30
0.0
 10
169.338064
 20
740.525894
 30
0.0
 10
170.181977
 20
739.681980
 30
0.0
  0
SPLINE
  5
134
100
AcDbEntity
  8
Layer_1
 62
1
100
AcDbSpline
 70
8
 71
3
 72
8
 73
4
 74
0
 40
0
 40
0
 40
0
 40
0
 40
1
 40
1
 40
1
 40
1
 10
170.181977
 20
739.681980
 30
0.0
 10
171.025891
 20
738.838066
 30
0.0
 10
171.499996
 20
737.693473
 30
0.0
 10
171.499996
 20
736.499998
 30
0.0
  0
LWPOLYLINE
  5
135
100
AcDbEntity
  8
Layer_1
 62
1
100
AcDbPolyline
 90
2
 70
1
 10
469.499992
 20
736.499998
 30
0.0
 10
469.499992
 20
736.499998
 30
0.0
  0
SPLINE
  5
136
100
AcDbEntity
  8
Layer_1
 62
1
100
AcDbSpline
 70
8
 71
3
 72
8
 73
4
 74
0
 40
0
 40
0
 40
0
 40
0
 40
1
 40
1
 40
1
 40
1
 10
137.500004
 20
11.500029
 30
0.0
 10
137.500006
 20
10.306554
 30
0.0
 10
137.025901
 20
9.161960
 30
0.0
 10
136.181987
 20
8.318045
 30
0.0
  0
SPLINE
  5
137
100
AcDbEntity
  8
Layer_1
 62
1
100
AcDbSpline
 70
8
 71
3
 72
8
 73
4
 74
0
 40
0
 40
0
 40
0
 40
0
 40
1
 40
1
 40
1
 40
1
 10
136.181987
 20
8.318045
 30
0.0
 10
135.338073
 20
7.474130
 30
0.0
 10
134.193480
 20
7.000024
 30
0.0
 10
133.000005
 20
7.000024
 30
0.0
  0
SPLINE
  5
138
100
AcDbEntity
  8
Layer_1
 62
1
100
AcDbSpline
 70
8
 71
3
 72
8
 73
4
 74
0
 40
0
 40
0
 40
0
 40
0
 40
1
 40
1
 40
1
 40
1
 10
133.000005
 20
7.000024
 30
0.0
 10
131.806530
 20
7.000024
 30
0.0
 10
130.661937
 20
7.474130
 30
0.0
 10
129.818023
 20
8.318045
 30
0.0
  0
SPLINE
  5
139
100
AcDbEntity
  8
Layer_1
 62
1
100
AcDbSpline
 70
8
 71
3
 72
8
 73
4
 74
0
 40
0
 40
0
 40
0
 40
0
 40
1
 40
1
 40
1
 40
1
 10
129.818023
 20
8.318045
 30
0.0
 10
128.974109
 20
9.161960
 30
0.0
 10
128.500004
 20
10.306554
 30
0.0
 10
128.500005
 20
11.500029
 30
0.0
  0
SPLINE
  5
13a
100
AcDbEntity
  8
Layer_1
 62
1
100
AcDbSpline
 70
8
 71
3
 72
8
 73
4
 74
0
 40
0
 40
0
 40
0
 40
0
 40
1
 40
1
 40
1
 40
1
 10
128.500005
 20
11.500029
 30
0.0
 10
128.500004
 20
12.693504
 30
0.0
 10
128.974109
 20
13.838098
 30
0.0
 10
129.818023
 20
14.682012
 30
0.0
  0
SPLINE
  5
13b
100
AcDbEntity
  8
Layer_1
 62
1
100
AcDbSpline
 70
8
 71
3
 72
8
 73
4
 74
0
 40
0
 40
0
 40
0
 40
0
 40
1
 40
1
 40
1
 40
1
 10
129.818023
 20
14.682012
 30
0.0
 10
130.661937
 20
15.525927
 30
0.0
 10
131.806530
 20
16.000034
 30
0.0
 10
133.000005
 20
16.000034
 30
0.0
  0
SPLINE
  5
13c
100
AcDbEntity
  8
Layer_1
 62
1
100
AcDbSpline
 70
8
 71
3
 72
8
 73
4
 74
0
 40
0
 40
0
 40
0
 40
0
 40
1
 40
1
 40
1
 40
1
 10
133.000005
 20
16.000034
 30
0.0
 10
134.193480
 20
16.000034
 30
0.0
 10
135.338073
 20
15.525927
 30
0.0
 10
136.181987
 20
14.682012
 30
0.0
  0
SPLINE
  5
13d
100
AcDbEntity
  8
Layer_1
 62
1
100
AcDbSpline
 70
8
 71
3
 72
8
 73
4
 74
0
 40
0
 40
0
 40
0
 40
0
 40
1
 40
1
 40
1
 40
1
 10
136.181987
 20
14.682012
 30
0.0
 10
137.025901
 20
13.838098
 30
0.0
 10
137.500006
 20
12.693504
 30
0.0
 10
137.500004
 20
11.500029
 30
0.0
  0
LWPOLYLINE
  5
13e
100
AcDbEntity
  8
Layer_1
 62
1
100
AcDbPolyline
 90
2
 70
1
 10
171.499996
 20
736.499998
 30
0.0
 10
171.499996
 20
736.499998
 30
0.0
  0
LWPOLYLINE
  5
13f
100
AcDbEntity
  8
Layer_1
 62
1
100
AcDbPolyline
 90
2
 70
1
 10
137.500004
 20
11.500029
 30
0.0
 10
137.500004
 20
11.500029
 30
0.0
  0
ENDSEC
  0
SECTION
  2
OBJECTS
  0
DICTIONARY
  5
C
330
0
100
AcDbDictionary
  3
ACAD_GROUP
350
D
  3
ACAD_MLINESTYLE
350
17
  0
DICTIONARY
  5
D
330
C
100
AcDbDictionary
  0
DICTIONARY
  5
1A
330
C
100
AcDbDictionary
  0
DICTIONARY
  5
17
330
C
100
AcDbDictionary
  3
STANDARD
350
18
  0
DICTIONARY
  5
19
330
C
100
AcDbDictionary
  0
ENDSEC
  0
EOF
